<svg id="en65ms9o8r71" xmlns="http://www.w3.org/2000/svg" xmlns:xlink="http://www.w3.org/1999/xlink" viewBox="0 0 2000 2000" shape-rendering="geometricPrecision" text-rendering="geometricPrecision"><style><![CDATA[#en65ms9o8r72_to {animation: en65ms9o8r72_to__to 6000ms linear 1 normal forwards}@keyframes en65ms9o8r72_to__to { 0% {transform: translate(78px,203.554773px);animation-timing-function: cubic-bezier(0.420000,0,0.580000,1)} 5% {transform: translate(78px,55.554773px)} 100% {transform: translate(78px,55.554773px)} }#en65ms9o8r72 {animation: en65ms9o8r72_c_o 6000ms linear 1 normal forwards}@keyframes en65ms9o8r72_c_o { 0% {opacity: 0;animation-timing-function: cubic-bezier(0.420000,0,0.580000,1)} 5% {opacity: 1} 100% {opacity: 1} }#en65ms9o8r73 {animation: en65ms9o8r73_c_o 6000ms linear 1 normal forwards}@keyframes en65ms9o8r73_c_o { 0% {opacity: 0;animation-timing-function: cubic-bezier(0.445000,0.050000,0.550000,0.950000)} 3.333333% {opacity: 1} 100% {opacity: 1} }#en65ms9o8r74_tr {animation: en65ms9o8r74_tr__tr 6000ms linear 1 normal forwards}@keyframes en65ms9o8r74_tr__tr { 0% {transform: translate(6px,-3px) rotate(-10deg)} 16.666667% {transform: translate(6px,-3px) rotate(-10deg);animation-timing-function: cubic-bezier(0.445000,0.050000,0.550000,0.950000)} 20% {transform: translate(6px,-3px) rotate(0deg)} 100% {transform: translate(6px,-3px) rotate(0deg)} }#en65ms9o8r74 {animation: en65ms9o8r74_c_o 6000ms linear 1 normal forwards}@keyframes en65ms9o8r74_c_o { 0% {opacity: 0;animation-timing-function: cubic-bezier(0.445000,0.050000,0.550000,0.950000)} 16.666667% {opacity: 0;animation-timing-function: cubic-bezier(0.445000,0.050000,0.550000,0.950000)} 20% {opacity: 1} 100% {opacity: 1} }#en65ms9o8r75_tr {animation: en65ms9o8r75_tr__tr 6000ms linear 1 normal forwards}@keyframes en65ms9o8r75_tr__tr { 0% {transform: translate(4.500000px,-4.574505px) rotate(-8deg)} 18.333333% {transform: translate(4.500000px,-4.574505px) rotate(-8deg);animation-timing-function: cubic-bezier(0.445000,0.050000,0.550000,0.950000)} 20% {transform: translate(4.500000px,-4.574505px) rotate(0deg)} 100% {transform: translate(4.500000px,-4.574505px) rotate(0deg)} }#en65ms9o8r75 {animation: en65ms9o8r75_c_o 6000ms linear 1 normal forwards}@keyframes en65ms9o8r75_c_o { 0% {opacity: 0;animation-timing-function: cubic-bezier(0.445000,0.050000,0.550000,0.950000)} 18.333333% {opacity: 0;animation-timing-function: cubic-bezier(0.445000,0.050000,0.550000,0.950000)} 20% {opacity: 1} 100% {opacity: 1} }#en65ms9o8r76_tr {animation: en65ms9o8r76_tr__tr 6000ms linear 1 normal forwards}@keyframes en65ms9o8r76_tr__tr { 0% {transform: translate(0px,0px) rotate(-2deg)} 15% {transform: translate(0px,0px) rotate(-2deg);animation-timing-function: cubic-bezier(0.445000,0.050000,0.550000,0.950000)} 16.666667% {transform: translate(0px,0px) rotate(0deg)} 100% {transform: translate(0px,0px) rotate(0deg)} }#en65ms9o8r76 {animation: en65ms9o8r76_c_o 6000ms linear 1 normal forwards}@keyframes en65ms9o8r76_c_o { 0% {opacity: 0;animation-timing-function: cubic-bezier(0.445000,0.050000,0.550000,0.950000)} 15% {opacity: 0;animation-timing-function: cubic-bezier(0.445000,0.050000,0.550000,0.950000)} 16.666667% {opacity: 1} 100% {opacity: 1} }#en65ms9o8r77 {animation: en65ms9o8r77_c_o 6000ms linear 1 normal forwards}@keyframes en65ms9o8r77_c_o { 0% {opacity: 0;animation-timing-function: cubic-bezier(0.445000,0.050000,0.550000,0.950000)} 13.333333% {opacity: 0;animation-timing-function: cubic-bezier(0.445000,0.050000,0.550000,0.950000)} 16.666667% {opacity: 1} 100% {opacity: 1} }#en65ms9o8r78 {animation: en65ms9o8r78_c_o 6000ms linear 1 normal forwards}@keyframes en65ms9o8r78_c_o { 0% {opacity: 0;animation-timing-function: cubic-bezier(0.445000,0.050000,0.550000,0.950000)} 15% {opacity: 0;animation-timing-function: cubic-bezier(0.445000,0.050000,0.550000,0.950000)} 16.666667% {opacity: 1} 100% {opacity: 1} }#en65ms9o8r79 {animation: en65ms9o8r79_c_o 6000ms linear 1 normal forwards}@keyframes en65ms9o8r79_c_o { 0% {opacity: 0} 3.333333% {opacity: 0;animation-timing-function: cubic-bezier(0.390000,0.575000,0.565000,1)} 8.333333% {opacity: 1} 100% {opacity: 1} }#en65ms9o8r710 {animation: en65ms9o8r710_c_o 6000ms linear 1 normal forwards}@keyframes en65ms9o8r710_c_o { 0% {opacity: 0} 3.333333% {opacity: 0;animation-timing-function: cubic-bezier(0.420000,0,0.580000,1)} 8.333333% {opacity: 1} 100% {opacity: 1} }#en65ms9o8r711_tr {animation: en65ms9o8r711_tr__tr 6000ms linear 1 normal forwards}@keyframes en65ms9o8r711_tr__tr { 0% {transform: translate(0px,0px) rotate(5deg)} 16.666667% {transform: translate(0px,0px) rotate(5deg);animation-timing-function: cubic-bezier(0.445000,0.050000,0.550000,0.950000)} 20% {transform: translate(0px,0px) rotate(0deg)} 100% {transform: translate(0px,0px) rotate(0deg)} }#en65ms9o8r711 {animation: en65ms9o8r711_c_o 6000ms linear 1 normal forwards}@keyframes en65ms9o8r711_c_o { 0% {opacity: 0;animation-timing-function: cubic-bezier(0.445000,0.050000,0.550000,0.950000)} 16.666667% {opacity: 0;animation-timing-function: cubic-bezier(0.445000,0.050000,0.550000,0.950000)} 20% {opacity: 1} 100% {opacity: 1} }#en65ms9o8r712_tr {animation: en65ms9o8r712_tr__tr 6000ms linear 1 normal forwards}@keyframes en65ms9o8r712_tr__tr { 0% {transform: translate(0px,0px) rotate(4deg)} 18.333333% {transform: translate(0px,0px) rotate(4deg);animation-timing-function: cubic-bezier(0.445000,0.050000,0.550000,0.950000)} 20% {transform: translate(0px,0px) rotate(0deg)} 100% {transform: translate(0px,0px) rotate(0deg)} }#en65ms9o8r712 {animation: en65ms9o8r712_c_o 6000ms linear 1 normal forwards}@keyframes en65ms9o8r712_c_o { 0% {opacity: 0;animation-timing-function: cubic-bezier(0.445000,0.050000,0.550000,0.950000)} 18.333333% {opacity: 0;animation-timing-function: cubic-bezier(0.445000,0.050000,0.550000,0.950000)} 20% {opacity: 1} 100% {opacity: 1} }#en65ms9o8r713_tr {animation: en65ms9o8r713_tr__tr 6000ms linear 1 normal forwards}@keyframes en65ms9o8r713_tr__tr { 0% {transform: translate(415.177888px,70.821011px) rotate(10deg)} 11.666667% {transform: translate(415.177888px,70.821011px) rotate(10deg);animation-timing-function: cubic-bezier(0.445000,0.050000,0.550000,0.950000)} 15% {transform: translate(415.177888px,70.821011px) rotate(0deg)} 100% {transform: translate(415.177888px,70.821011px) rotate(0deg)} }#en65ms9o8r713 {animation: en65ms9o8r713_c_o 6000ms linear 1 normal forwards}@keyframes en65ms9o8r713_c_o { 0% {opacity: 0.040000;animation-timing-function: cubic-bezier(0.445000,0.050000,0.550000,0.950000)} 11.666667% {opacity: 0.040000;animation-timing-function: cubic-bezier(0.445000,0.050000,0.550000,0.950000)} 15% {opacity: 1} 100% {opacity: 1} }#en65ms9o8r714_tr {animation: en65ms9o8r714_tr__tr 6000ms linear 1 normal forwards}@keyframes en65ms9o8r714_tr__tr { 0% {transform: translate(0px,0px) rotate(-2deg)} 15% {transform: translate(0px,0px) rotate(-2deg);animation-timing-function: cubic-bezier(0.445000,0.050000,0.550000,0.950000)} 16.666667% {transform: translate(0px,0px) rotate(0deg)} 100% {transform: translate(0px,0px) rotate(0deg)} }#en65ms9o8r714 {animation: en65ms9o8r714_c_o 6000ms linear 1 normal forwards}@keyframes en65ms9o8r714_c_o { 0% {opacity: 0;animation-timing-function: cubic-bezier(0.445000,0.050000,0.550000,0.950000)} 15% {opacity: 0;animation-timing-function: cubic-bezier(0.445000,0.050000,0.550000,0.950000)} 16.666667% {opacity: 1} 100% {opacity: 1} }#en65ms9o8r715 {animation: en65ms9o8r715_c_o 6000ms linear 1 normal forwards}@keyframes en65ms9o8r715_c_o { 0% {opacity: 0;animation-timing-function: cubic-bezier(0.445000,0.050000,0.550000,0.950000)} 13.333333% {opacity: 0;animation-timing-function: cubic-bezier(0.445000,0.050000,0.550000,0.950000)} 16.666667% {opacity: 1} 100% {opacity: 1} }#en65ms9o8r716_tr {animation: en65ms9o8r716_tr__tr 6000ms linear 1 normal forwards}@keyframes en65ms9o8r716_tr__tr { 0% {transform: translate(1599.602222px,65.985969px) rotate(-10deg)} 11.666667% {transform: translate(1599.602222px,65.985969px) rotate(-10deg);animation-timing-function: cubic-bezier(0.390000,0.575000,0.565000,1)} 15% {transform: translate(1599.602222px,65.985969px) rotate(0deg)} 100% {transform: translate(1599.602222px,65.985969px) rotate(0deg)} }#en65ms9o8r716 {animation: en65ms9o8r716_c_o 6000ms linear 1 normal forwards}@keyframes en65ms9o8r716_c_o { 0% {opacity: 0;animation-timing-function: cubic-bezier(0.390000,0.575000,0.565000,1)} 11.666667% {opacity: 0;animation-timing-function: cubic-bezier(0.390000,0.575000,0.565000,1)} 15% {opacity: 1} 100% {opacity: 1} }#en65ms9o8r717 {animation: en65ms9o8r717_c_o 6000ms linear 1 normal forwards}@keyframes en65ms9o8r717_c_o { 0% {opacity: 0;animation-timing-function: cubic-bezier(0.390000,0.575000,0.565000,1)} 15% {opacity: 0;animation-timing-function: cubic-bezier(0.390000,0.575000,0.565000,1)} 16.666667% {opacity: 1} 100% {opacity: 1} }]]></style><g id="en65ms9o8r72_to" transform="translate(78,203.554773)"><path id="en65ms9o8r72" d="M918.936035,569.445227C895.079212,569.445227,875.070263,560.983258,858.812992,544.158874C842.459525,527.334489,834.378988,506.528001,834.378988,481.938516C834.378988,457.249478,842.363328,436.044780,858.332008,418.224869C874.300688,400.404959,894.502031,391.445227,918.936035,391.445227C943.370039,391.445227,964.052366,400.205853,980.983015,417.727106C997.913664,435.248359,1006.378988,456.652162,1006.378988,481.938516C1006.378988,507.224869,997.721270,528.130909,980.502031,544.656636C963.186594,561.182363,942.696661,569.445227,918.936035,569.445227Z" transform="translate(0,0)" opacity="0" fill="rgb(31,160,97)" fill-rule="evenodd" stroke="none" stroke-width="1"/></g><path id="en65ms9o8r73" d="M926.600000,1208.700000L926.600000,1197C927.900000,1196.300000,938.800000,1186.700000,959.300000,1168.200000C979.800000,1149.600000,998.500000,1123.400000,1015.500000,1089.500000C1032.400000,1055.600000,1040.900000,1016.500000,1040.900000,972.200000C1040.900000,936.400000,1035.700000,918.500000,1025.300000,918.500000C1024.600000,918.500000,1019.800000,919.800000,1010.600000,922.400000L995,926.300000C970.900000,926.300000,949.900000,918.200000,932,901.900000C914.100000,885.600000,905.100000,864.400000,905.100000,838.400000C905.100000,813.600000,914.200000,792.800000,932.500000,775.900000C950.700000,759,972.200000,750.500000,997,750.500000C1017.200000,750.500000,1037.100000,757.800000,1056.600000,772.500000C1076.100000,787.200000,1091.800000,807.500000,1103.500000,833.600000C1115.200000,859.700000,1121.100000,888.700000,1121.100000,920.600000C1121.100000,985.700000,1104.500000,1042.800000,1071.300000,1091.600000C1038,1140.300000,989.700000,1179.400000,926.600000,1208.700000Z" opacity="0" fill="rgb(31,160,97)" stroke="none" stroke-width="1"/><g id="en65ms9o8r74_tr" transform="translate(6,-3) rotate(-10)"><path id="en65ms9o8r74" d="M1000.300000,679.200000C1000,679.400000,999.700000,679.600000,999.500000,679.700000C999.100000,680,998.700000,680.200000,998.300000,680.500000C994.100000,683.300000,989.900000,686.200000,985.800000,688.900000C982.700000,691,979.600000,693,976.600000,695.100000C966,704.600000,955.800000,714,945.900000,723.400000C944.200000,725,942.500000,726.600000,940.800000,728.200000L940.800000,728.200000C905.100000,748.300000,858.700000,775.300000,806.500000,811.300000C763,841.200000,715.400000,877.200000,666.500000,920.500000C476.700000,1088.300000,266.900000,1365.600000,197.100000,1817.900000C197.100000,1818.200000,197,1818.500000,197,1818.800000L197,1818.200000C197,1818.200000,197,1818.200000,196.900000,1817.400000L196.900000,1817.400000C196.900000,1817.300000,196.900000,1817.300000,196.900000,1817.200000C196.800000,1816.500000,196.700000,1815.500000,196.600000,1814.200000C193.700000,1786,178.100000,1628.500000,161.800000,1421.400000C161.700000,1420.800000,161.700000,1420.300000,161.600000,1419.700000C161.400000,1416.500000,161.100000,1413.400000,160.900000,1410.200000C152.200000,1274,218.400000,1164.500000,308.300000,1079.600000C308.300000,1079.600000,308.300000,1079.500000,308.400000,1079.500000C333.500000,1055.800000,360.400000,1034.100000,388.200000,1014.200000C388.200000,1014.200000,388.200000,1014.200000,388.300000,1014.200000C402.800000,1004.300000,418.400000,994.500000,434.700000,985.900000C434.700000,985.900000,434.700000,985.900000,434.700000,985.900000C439.500000,983.400000,444.400000,980.900000,449.300000,978.700000C461,974.400000,473,969.800000,485.300000,964.900000C485.300000,964.900000,485.300000,964.900000,485.300000,964.900000C493.500000,961.600000,501.800000,958.200000,510.300000,954.600000C584,923.500000,668.200000,881,762.900000,826C762.900000,826,762.900000,826,762.900000,826C833.100000,785.200000,909,737.600000,990.800000,682.500000L990.800000,682.500000C991.600000,682,992.300000,681.500000,993.100000,681C994.300000,680.200000,995.500000,679.400000,996.700000,678.600000C997.800000,679,999.100000,679.100000,1000.300000,679.200000Z" transform="translate(0,0)" opacity="0" fill="rgb(42,182,115)" stroke="none" stroke-width="1"/></g><g id="en65ms9o8r75_tr" transform="translate(4.500000,-4.574505) rotate(-8)"><path id="en65ms9o8r75" d="M995.500000,678.500000C994.400000,679.400000,993.400000,680.300000,992.300000,681.200000C991.800000,681.700000,991.200000,682.100000,990.700000,682.600000L990.700000,682.600000C985.900000,686.800000,981.200000,691,976.500000,695.100000C965.900000,704.600000,955.700000,714,945.800000,723.400000C944.100000,725,942.400000,726.600000,940.700000,728.200000L940.700000,728.200000C714.400000,946.200000,678.900000,1146.300000,678.900000,1310.500000C678.900000,1488.100000,179.300000,1948.500000,196.700000,1817.400000L196.700000,1817.400000C196.700000,1817.200000,196.800000,1817,196.800000,1816.700000C196.800000,1816.700000,196.800000,1816.700000,196.800000,1816.700000C223.200000,1633.700000,276.300000,1476.300000,343.100000,1341.800000C343.400000,1341.100000,343.800000,1340.500000,344.100000,1339.800000C362.100000,1303.700000,381.200000,1269.200000,400.900000,1236.400000C401.700000,1235.100000,402.500000,1233.800000,403.300000,1232.500000C510.800000,1055.100000,639.900000,925.300000,750.600000,835.800000C754.700000,832.500000,758.700000,829.200000,762.800000,826.100000C762.800000,826.100000,762.800000,826.100000,762.800000,826.100000C766.100000,823.500000,769.400000,820.900000,772.600000,818.400000L772.600000,818.400000C866.300000,745.300000,944.200000,702.100000,980.100000,683.700000C983,682.200000,985.700000,680.900000,988,679.700000C989.400000,679,990.700000,678.400000,991.900000,677.800000C992.800000,678,993.800000,678.200000,994.700000,678.400000C995,678.500000,995.200000,678.500000,995.500000,678.500000Z" transform="translate(0,0)" opacity="0" fill="rgb(31,160,97)" stroke="none" stroke-width="1"/></g><g id="en65ms9o8r76_tr" transform="translate(0,0) rotate(-2)"><path id="en65ms9o8r76" d="M1000.300000,679.200000C1000,679.400000,999.700000,679.600000,999.500000,679.700000C999.100000,680,998.700000,680.200000,998.300000,680.500000C994.100000,683.300000,989.900000,686.200000,985.800000,688.900000C982.700000,691,979.600000,693,976.600000,695.100000C975.500000,695.800000,974.500000,696.500000,973.400000,697.300000C971.300000,698.700000,969.300000,700.100000,967.200000,701.400000C965.100000,702.800000,963.100000,704.100000,961,705.500000C956.400000,708.600000,951.800000,711.600000,947.200000,714.600000C944.900000,716.100000,942.600000,717.600000,940.300000,719.100000C928.900000,726.600000,917.600000,733.900000,906.500000,741C899.500000,745.500000,892.600000,749.900000,885.700000,754.300000C883.300000,755.800000,880.900000,757.300000,878.600000,758.800000C876.200000,760.300000,873.900000,761.800000,871.500000,763.300000C871.400000,763.300000,871.300000,763.400000,871.200000,763.500000C868.900000,764.900000,866.700000,766.300000,864.400000,767.800000C859.700000,770.700000,855,773.600000,850.400000,776.500000C848.300000,777.800000,846.200000,779.100000,844.100000,780.400000C840.600000,782.500000,837.200000,784.700000,833.700000,786.800000C832,787.800000,830.300000,788.900000,828.500000,790C821.800000,794.100000,815.200000,798.100000,808.600000,802.100000C806.700000,803.200000,804.900000,804.300000,803,805.400000C801.200000,806.500000,799.300000,807.600000,797.500000,808.700000C793.800000,810.900000,790.200000,813.100000,786.500000,815.200000C782.900000,817.300000,779.300000,819.500000,775.700000,821.600000L775.700000,821.600000C775.700000,821.600000,775.700000,821.600000,775.600000,821.600000C773.800000,822.700000,772,823.700000,770.100000,824.800000C768.500000,825.700000,766.900000,826.700000,765.400000,827.600000C763.800000,828.500000,762.200000,829.500000,760.600000,830.400000C758.400000,831.700000,756.200000,832.900000,754,834.200000C752.900000,834.800000,751.700000,835.500000,750.600000,836.100000C749,837,747.300000,838,745.700000,838.900000C743.200000,840.300000,740.800000,841.700000,738.400000,843.100000C738.300000,843.100000,738.200000,843.200000,738.100000,843.300000C735.700000,844.600000,733.400000,846,731.100000,847.300000C728.700000,848.700000,726.200000,850,723.800000,851.400000C721.400000,852.800000,719,854.100000,716.600000,855.400000C714.200000,856.700000,711.800000,858.100000,709.400000,859.400000C707,860.700000,704.600000,862,702.300000,863.300000C699.900000,864.600000,697.600000,865.900000,695.200000,867.200000C692.900000,868.500000,690.600000,869.700000,688.400000,870.900000C686.100000,872.100000,683.800000,873.400000,681.600000,874.600000C681.500000,874.700000,681.300000,874.700000,681.200000,874.800000C664.900000,883.500000,649,891.900000,633.400000,899.800000C631.500000,900.800000,629.600000,901.700000,627.700000,902.700000C627.400000,902.900000,627.100000,903,626.700000,903.200000C624.500000,904.300000,622.300000,905.400000,620.100000,906.500000C611.300000,910.900000,602.600000,915.200000,594.100000,919.300000C592.400000,920.100000,590.600000,921,588.900000,921.800000C582,925.100000,575.200000,928.300000,568.400000,931.500000C566.600000,932.300000,564.800000,933.100000,563,934C556.400000,937,549.900000,940,543.400000,942.900000C540.100000,944.400000,536.900000,945.800000,533.600000,947.200000C527.100000,950,520.700000,952.800000,514.400000,955.500000C512.400000,956.300000,510.500000,957.100000,508.600000,958C506.700000,958.800000,504.800000,959.600000,502.900000,960.400000C502.900000,960.400000,502.900000,960.400000,502.800000,960.400000C487.600000,966.700000,473,972.400000,458.700000,977.700000C458.500000,977.800000,458.300000,977.800000,458.200000,977.900000C455.800000,978.800000,453.400000,979.700000,451,980.500000C450.700000,980.600000,450.400000,980.700000,450.100000,980.800000C447.400000,981.800000,444.800000,982.700000,442.200000,983.600000C441.300000,983.900000,440.500000,984.200000,439.600000,984.500000C437.900000,985.100000,436.200000,985.700000,434.600000,986.300000C434.600000,986.300000,434.600000,986.300000,434.600000,986.300000C433.200000,986.800000,431.900000,987.200000,430.500000,987.700000C429.200000,988.100000,427.900000,988.600000,426.600000,989C424.700000,989.600000,422.900000,990.300000,421,990.900000C420.900000,990.900000,420.900000,990.900000,420.800000,991C407.400000,995.400000,394.500000,999.300000,382.100000,1002.800000C373.800000,1004.800000,365.800000,1006.600000,358.100000,1008C334.100000,1012.700000,312.700000,1015.100000,293.600000,1015.700000C182.400000,1019.400000,147.400000,961.900000,136.500000,924.100000C133.400000,913.500000,132.200000,904.500000,131.800000,898.700000C131.800000,898.600000,131.800000,898.600000,131.800000,898.600000C131.700000,896.500000,131.600000,894.500000,131.500000,892.400000C131.500000,892.200000,131.500000,892.100000,131.500000,892.100000C131.500000,892.100000,131.500000,892,131.500000,891.900000C131.200000,885,130.900000,878,130.700000,871.100000L130.700000,871.100000C150,781,294,731.900000,459.700000,705.400000C486,701.200000,512.800000,697.600000,539.800000,694.400000C543.300000,694,546.900000,693.600000,550.400000,693.200000C550.500000,693.200000,550.500000,693.200000,550.500000,693.200000C553.400000,693.800000,556.300000,694.400000,559.200000,695C559.400000,695,559.600000,695.100000,559.700000,695.100000C562.800000,695.700000,565.900000,696.400000,569.100000,696.900000C570.700000,697.200000,572.300000,697.500000,573.900000,697.800000C575.500000,698.100000,577,698.400000,578.600000,698.600000C580.200000,698.900000,581.800000,699.200000,583.400000,699.400000C584.300000,699.600000,585.200000,699.700000,586,699.800000C586.700000,699.900000,587.500000,700,588.200000,700.100000C593.300000,700.900000,598.500000,701.700000,603.800000,702.400000C604.100000,702.400000,604.500000,702.500000,604.900000,702.500000C605.100000,702.500000,605.400000,702.600000,605.600000,702.600000C605.600000,702.600000,605.700000,702.600000,605.700000,702.600000C606.300000,702.700000,606.800000,702.800000,607.400000,702.900000C608.100000,703,608.800000,703.100000,609.400000,703.200000C609.500000,703.200000,609.600000,703.200000,609.800000,703.200000C609.900000,703.200000,610,703.200000,610.200000,703.200000C611.400000,703.400000,612.500000,703.500000,613.700000,703.600000C614.500000,703.700000,615.300000,703.800000,616.100000,703.900000C616.900000,704,617.800000,704.100000,618.600000,704.200000C619.100000,704.200000,619.600000,704.300000,620,704.400000C621.900000,704.600000,623.900000,704.900000,625.900000,705.100000C627.400000,705.200000,628.900000,705.400000,630.400000,705.600000C630.900000,705.600000,631.400000,705.700000,631.900000,705.700000C632.100000,705.700000,632.300000,705.700000,632.500000,705.800000C632.900000,705.900000,633.300000,705.900000,633.800000,705.900000C633.800000,705.900000,633.800000,705.900000,633.800000,705.900000C634.900000,706,635.900000,706.100000,637,706.200000C637.500000,706.200000,638,706.300000,638.500000,706.300000C640.900000,706.500000,643.200000,706.700000,645.600000,706.900000C646.500000,707,647.300000,707.100000,648.200000,707.100000C648.600000,707.100000,649,707.100000,649.500000,707.200000C649.900000,707.200000,650.300000,707.200000,650.600000,707.300000C651,707.300000,651.300000,707.400000,651.700000,707.400000C653.900000,707.600000,656.100000,707.700000,658.300000,707.900000C658.300000,707.900000,658.400000,707.900000,658.400000,707.900000C658.800000,707.900000,659.100000,707.900000,659.500000,708C660.400000,708.100000,661.400000,708.100000,662.300000,708.200000C662.400000,708.200000,662.600000,708.200000,662.700000,708.200000C664,708.300000,665.300000,708.300000,666.600000,708.400000C666.700000,708.400000,666.800000,708.400000,666.900000,708.400000C666.900000,708.400000,667,708.400000,667,708.400000C668.400000,708.500000,669.800000,708.600000,671.300000,708.600000C672.300000,708.600000,673.300000,708.700000,674.300000,708.700000C675.300000,708.700000,676.200000,708.800000,677.200000,708.800000C677.500000,708.800000,677.800000,708.800000,678.100000,708.800000C678.400000,708.800000,678.800000,708.800000,679.100000,708.800000C680.400000,708.900000,681.600000,708.900000,682.900000,709C683,709,683,709,683.100000,709C684.900000,709.100000,686.700000,709.100000,688.600000,709.200000C689.100000,709.200000,689.500000,709.200000,690,709.200000C690.600000,709.200000,691.200000,709.200000,691.800000,709.200000C696,709.300000,700.300000,709.400000,704.600000,709.500000C708.900000,709.500000,713.300000,709.600000,717.600000,709.600000C719.500000,709.600000,721.400000,709.600000,723.300000,709.600000C724.500000,709.600000,725.600000,709.600000,726.800000,709.600000C728,709.600000,729.300000,709.600000,730.500000,709.600000C731.900000,709.600000,733.300000,709.600000,734.700000,709.500000C734.800000,709.500000,734.800000,709.500000,734.900000,709.500000C735.300000,709.500000,735.800000,709.500000,736.200000,709.500000C736.500000,709.500000,736.700000,709.500000,737,709.500000C737.100000,709.500000,737.200000,709.500000,737.300000,709.500000C738.700000,709.500000,740.100000,709.400000,741.500000,709.400000C742,709.400000,742.500000,709.400000,743,709.400000C743.600000,709.400000,744.200000,709.400000,744.800000,709.400000C745.100000,709.400000,745.400000,709.400000,745.700000,709.400000C746.500000,709.400000,747.400000,709.400000,748.300000,709.300000C749.200000,709.300000,750.100000,709.200000,751,709.200000C751.900000,709.200000,752.800000,709.100000,753.800000,709.100000C754.600000,709.100000,755.400000,709,756.200000,709C757.800000,708.900000,759.400000,708.900000,761,708.800000C762.600000,708.700000,764.200000,708.700000,765.800000,708.600000C765.800000,708.600000,765.900000,708.600000,765.900000,708.600000C767.700000,708.500000,769.600000,708.400000,771.500000,708.300000C771.800000,708.300000,772.100000,708.300000,772.400000,708.200000C774.400000,708.100000,776.300000,708,778.300000,707.900000C778.400000,707.900000,778.500000,707.900000,778.500000,707.900000C779.200000,707.900000,779.800000,707.800000,780.500000,707.800000C782.700000,707.700000,784.900000,707.500000,787,707.400000C788,707.300000,789.100000,707.300000,790.100000,707.200000C790.200000,707.200000,790.300000,707.200000,790.400000,707.200000C792,707.100000,793.600000,707,795.300000,706.900000C796.900000,706.800000,798.600000,706.700000,800.200000,706.500000C800.700000,706.500000,801.200000,706.400000,801.600000,706.400000C802.600000,706.300000,803.700000,706.200000,804.700000,706.200000C807.900000,706,811,705.700000,814.200000,705.400000C815.700000,705.300000,817.300000,705.100000,818.800000,705C820.300000,704.900000,821.900000,704.700000,823.500000,704.500000C825.500000,704.300000,827.400000,704.200000,829.400000,704C830.400000,703.900000,831.500000,703.800000,832.500000,703.700000C832.800000,703.700000,833.100000,703.600000,833.400000,703.600000C833.900000,703.500000,834.400000,703.500000,834.900000,703.400000C835.400000,703.400000,835.900000,703.300000,836.300000,703.300000C836.700000,703.300000,837.100000,703.200000,837.500000,703.200000C839.300000,703,841.100000,702.800000,842.900000,702.600000C844,702.500000,845.200000,702.400000,846.300000,702.200000C847.100000,702.100000,848,702,848.800000,701.900000C849.300000,701.800000,849.900000,701.800000,850.400000,701.700000C850.500000,701.700000,850.600000,701.700000,850.800000,701.700000L852.300000,701.500000C853,701.400000,853.600000,701.400000,854.300000,701.300000C856.100000,701.100000,858,700.900000,859.800000,700.600000C860,700.600000,860.200000,700.600000,860.400000,700.500000C863.200000,700.200000,866,699.800000,868.800000,699.400000C870.900000,699.100000,873.100000,698.800000,875.200000,698.600000C875.400000,698.600000,875.600000,698.600000,875.700000,698.500000C876.400000,698.400000,877.200000,698.300000,877.900000,698.200000C878.400000,698.100000,878.900000,698.100000,879.400000,698C880.500000,697.800000,881.700000,697.700000,882.800000,697.500000C883.500000,697.400000,884.300000,697.300000,885,697.200000C888.800000,696.700000,892.600000,696.100000,896.500000,695.600000C902.800000,694.700000,909,693.700000,915.400000,692.700000C917.200000,692.400000,919,692.100000,920.800000,691.800000C922.200000,691.600000,923.600000,691.400000,924.900000,691.100000L924.900000,691.100000C924.900000,691.100000,924.900000,691.100000,924.900000,691.100000C927.900000,690.600000,930.900000,690.100000,934,689.600000C935.800000,689.300000,937.600000,689,939.400000,688.700000C941.200000,688.400000,943,688.100000,944.800000,687.700000C947.400000,687.200000,950,686.800000,952.500000,686.300000C953.500000,686.100000,954.500000,685.900000,955.500000,685.800000C959.900000,685,964.400000,684.100000,968.900000,683.300000C970.200000,683,971.600000,682.800000,972.900000,682.500000C976.600000,681.800000,980.200000,681.100000,984,680.300000C985.300000,680,986.700000,679.800000,988,679.500000C989.200000,679.300000,990.400000,679,991.600000,678.800000C992.400000,678.600000,993.300000,678.500000,994.100000,678.300000C994.300000,678.300000,994.500000,678.200000,994.700000,678.200000C994.900000,678.200000,995.200000,678.300000,995.400000,678.300000C995.800000,678.400000,996.100000,678.400000,996.500000,678.500000C997.800000,679,999.100000,679.100000,1000.300000,679.200000Z" transform="translate(0,0)" opacity="0" fill="rgb(31,160,97)" stroke="none" stroke-width="1"/></g><path id="en65ms9o8r77" d="M550.600000,695.100000C550.600000,695.100000,550.600000,695.100000,550.500000,695.100000C519.900000,698.500000,489.500000,702.500000,459.700000,707.300000C382.100000,711.400000,272.200000,701.100000,201.300000,625.800000C153.600000,575.300000,123.500000,495.500000,132.500000,371C133.700000,357.200000,135,343.900000,136.500000,331.400000C140,303.900000,145.300000,274.500000,152.600000,242.900000C152.600000,242.800000,152.600000,242.800000,152.700000,242.700000C164.100000,202,179.500000,179.400000,199.800000,180.700000C199.800000,180.700000,195.800000,209.500000,197.100000,253.600000C197.200000,255.600000,197.200000,257.700000,197.300000,259.900000C197.400000,263.600000,197.600000,267.500000,197.900000,271.400000C198,272.700000,198.100000,274,198.200000,275.300000C198.400000,279.100000,198.700000,282.900000,199,286.800000C199.100000,288,199.200000,289.200000,199.300000,290.400000C199.500000,292.800000,199.800000,295.200000,200,297.600000C200.200000,300,200.500000,302.500000,200.800000,305C201.100000,307.500000,201.400000,310,201.700000,312.500000C203.500000,326.500000,205.900000,341.200000,209.100000,356.400000C209.400000,357.600000,209.600000,358.800000,209.900000,360C211.800000,368.900000,214,378,216.500000,387.200000C216.900000,388.700000,217.300000,390.200000,217.800000,391.600000C222.700000,409.100000,228.800000,427,236.200000,444.900000C236.800000,446.300000,237.400000,447.800000,238,449.200000C238.600000,450.700000,239.200000,452.100000,239.900000,453.500000C240.500000,455,241.200000,456.400000,241.800000,457.800000C245,465,248.500000,472.200000,252.200000,479.300000C252.900000,480.700000,253.700000,482.200000,254.400000,483.600000C255.200000,485,255.900000,486.500000,256.700000,487.900000C257.600000,489.500000,258.400000,491,259.300000,492.500000C260,493.800000,260.800000,495.100000,261.500000,496.400000C264.700000,502,268.100000,507.600000,271.700000,513.100000C272.700000,514.600000,273.600000,516,274.600000,517.500000C275.500000,518.900000,276.500000,520.300000,277.400000,521.700000C279.200000,524.400000,281.100000,527.100000,283.100000,529.800000C285.700000,533.400000,288.400000,537,291.100000,540.500000C292,541.600000,292.900000,542.800000,293.800000,543.900000C294.600000,544.900000,295.500000,546,296.300000,547C297.200000,548.100000,298,549.200000,298.900000,550.200000C300.200000,551.800000,301.600000,553.400000,302.900000,555C303.800000,556,304.700000,557.100000,305.600000,558.100000C307.900000,560.700000,310.200000,563.400000,312.600000,566C313.400000,566.900000,314.200000,567.800000,315.100000,568.700000C316.800000,570.500000,318.400000,572.200000,320.100000,574C321.300000,575.200000,322.400000,576.400000,323.600000,577.600000C324.900000,578.900000,326.200000,580.100000,327.500000,581.400000C332.700000,586.400000,338.100000,591.400000,343.600000,596.200000C344.600000,597.100000,345.700000,598,346.800000,598.900000C347.100000,599.200000,347.500000,599.500000,347.900000,599.800000C349.300000,601,350.800000,602.200000,352.200000,603.400000C353.600000,604.600000,355.100000,605.800000,356.600000,606.900000C357.700000,607.800000,358.900000,608.700000,360,609.600000C360.300000,609.800000,360.600000,610.100000,360.900000,610.300000C361,610.400000,361.200000,610.500000,361.300000,610.600000C361.500000,610.800000,361.700000,610.900000,361.900000,611.100000C363.100000,612.100000,364.300000,613,365.500000,613.900000C376.200000,621.900000,387.600000,629.600000,399.600000,636.900000C401.300000,638,403.100000,639,404.800000,640C408.300000,642.100000,411.900000,644.100000,415.600000,646.100000C417.200000,647,418.800000,647.800000,420.400000,648.700000C423.600000,650.400000,426.900000,652.100000,430.200000,653.700000C432.200000,654.700000,434.300000,655.700000,436.300000,656.700000C437.700000,657.400000,439.100000,658,440.500000,658.700000C441.600000,659.200000,442.700000,659.700000,443.800000,660.200000C449.800000,663,456,665.600000,462.400000,668.200000C464.300000,669,466.200000,669.700000,468.100000,670.500000C469.800000,671.200000,471.600000,671.800000,473.300000,672.500000C474.100000,672.800000,474.900000,673.100000,475.700000,673.400000C477.300000,674,479,674.600000,480.600000,675.200000C483.500000,676.300000,486.500000,677.300000,489.500000,678.300000C491,678.800000,492.500000,679.300000,494,679.800000C498.400000,681.300000,502.900000,682.700000,507.500000,684.100000C509.300000,684.700000,511.200000,685.200000,513,685.700000C515.900000,686.500000,518.800000,687.400000,521.800000,688.200000C523.800000,688.700000,525.900000,689.300000,527.900000,689.800000C528.600000,690,529.200000,690.100000,529.900000,690.300000C531.800000,690.800000,533.800000,691.300000,535.800000,691.800000C538.200000,692.400000,540.600000,693,543.100000,693.600000C544.300000,693.900000,545.400000,694.100000,546.600000,694.400000C547.100000,694.500000,547.700000,694.600000,548.200000,694.800000C548.600000,694.900000,548.900000,695,549.300000,695.100000C549.600000,695.200000,549.900000,695.200000,550.100000,695.300000C550.100000,695.300000,550.200000,695.300000,550.200000,695.300000C550.500000,695.100000,550.500000,695.100000,550.600000,695.100000Z" transform="matrix(1 0 0 1 6.89999999999984 6.34407989499988)" opacity="0" fill="rgb(31,160,97)" stroke="none" stroke-width="1"/><path id="en65ms9o8r78" d="M460.700000,705.400000C295,731.900000,151,781,131.600000,870.800000C130.900000,854.200000,130.300000,837.700000,129.800000,821.300000C129.900000,713.500000,159.200000,653.600000,202.400000,623.900000C273.200000,699.100000,383.200000,709.400000,460.700000,705.400000Z" opacity="0" fill="rgb(42,182,115)" stroke="none" stroke-width="1"/><path id="en65ms9o8r79" d="M1233.800000,248.300000C1233.100000,268.500000,1214.100000,284.200000,1191.500000,283.400000C1186.100000,283.200000,1181.100000,282.100000,1176.400000,280.300000L1176,280.300000C1176,280.300000,1164.700000,275.700000,1146,288.600000C1144.300000,289.800000,1142.600000,291.100000,1140.800000,292.500000C1140.700000,292.600000,1140.500000,292.700000,1140.400000,292.800000C1139.500000,293.600000,1138.500000,294.400000,1137.500000,295.300000C1116.700000,313.800000,1089,353.400000,1058.600000,436.500000C1059.300000,432.700000,1078.200000,332.200000,1122.900000,265.500000C1122.900000,265.400000,1123,265.300000,1123,265.300000C1125.100000,262.200000,1127.200000,259.100000,1129.500000,256.200000C1129.500000,256.100000,1129.500000,256.100000,1129.600000,256.100000C1133.200000,251.700000,1136.600000,248.300000,1139.400000,245.800000C1139.600000,245.600000,1139.800000,245.400000,1140.100000,245.200000C1140.100000,245.200000,1140.200000,245.100000,1140.200000,245.100000C1144.400000,241.900000,1147.300000,240,1148.700000,239.100000C1149,238.900000,1149.200000,238.800000,1149.300000,238.700000C1149.400000,238.600000,1149.500000,238.600000,1149.600000,238.500000C1149.600000,238.500000,1149.600000,238.500000,1149.600000,238.500000L1149.600000,238.500000C1152.900000,236.600000,1155.900000,234.200000,1157.400000,230.200000C1159.300000,225.200000,1162.400000,221.700000,1164.900000,219.600000C1165.100000,219.400000,1165.400000,219.200000,1165.600000,219C1166.500000,218.300000,1167.500000,217.600000,1168.500000,217C1168.500000,217,1168.600000,216.900000,1168.600000,217L1168.600000,217C1175.700000,212.400000,1184.500000,209.900000,1194,210.200000C1216.700000,211.100000,1234.500000,228.100000,1233.800000,248.300000Z" opacity="0" fill="rgb(42,182,115)" fill-rule="evenodd" stroke="none" stroke-width="0" stroke-dashoffset="622.270000"/><path id="en65ms9o8r710" d="M939.100000,436.700000C908.600000,353.500000,881,314,860.200000,295.400000C859.200000,294.500000,858.300000,293.700000,857.300000,292.900000C857.200000,292.800000,857,292.700000,856.900000,292.600000C855.100000,291.100000,853.400000,289.800000,851.700000,288.700000C833,275.800000,821.700000,280.400000,821.700000,280.400000L821.400000,280.400000C816.800000,282.200000,811.700000,283.300000,806.300000,283.500000C783.600000,284.300000,764.700000,268.600000,764,248.400000C763.300000,228.200000,781.100000,211.100000,803.800000,210.300000C813.300000,210,822.100000,212.500000,829.200000,217.100000L829.200000,217.100000C829.200000,217.100000,829.300000,217.100000,829.300000,217.100000C830.300000,217.700000,831.200000,218.400000,832.200000,219.100000C832.400000,219.300000,832.700000,219.500000,832.900000,219.700000C835.400000,221.800000,838.500000,225.300000,840.400000,230.400000C841.900000,234.400000,844.900000,236.800000,848.200000,238.700000L848.200000,238.700000C848.200000,238.700000,848.200000,238.700000,848.200000,238.700000C848.300000,238.800000,848.400000,238.800000,848.500000,238.900000C848.700000,239,848.900000,239.100000,849.100000,239.300000C850.500000,240.200000,853.500000,242.100000,857.600000,245.300000C857.600000,245.300000,857.700000,245.300000,857.700000,245.400000C858,245.600000,858.200000,245.800000,858.400000,246C861.200000,248.500000,864.600000,251.900000,868.200000,256.300000C868.300000,256.300000,868.300000,256.400000,868.300000,256.400000C870.500000,259.400000,872.700000,262.400000,874.800000,265.500000C874.800000,265.600000,874.900000,265.700000,874.900000,265.700000C919.500000,332.400000,938.400000,432.800000,939.100000,436.700000Z" opacity="0" fill="rgb(42,182,115)" fill-rule="evenodd" stroke="none" stroke-width="0" stroke-dashoffset="622.270000"/><g id="en65ms9o8r711_tr" transform="translate(0,0) rotate(5)"><path id="en65ms9o8r711" d="M1015.400000,678.200000C1015.700000,678.400000,1016,678.600000,1016.200000,678.700000C1016.600000,679,1017,679.200000,1017.400000,679.500000C1021.600000,682.300000,1025.800000,685.200000,1029.900000,687.900000C1033,690,1036.100000,692,1039.100000,694.100000C1049.700000,703.600000,1059.900000,713,1069.800000,722.400000C1071.500000,724,1073.200000,725.600000,1074.900000,727.200000L1074.900000,727.200000C1110.600000,747.300000,1157,774.300000,1209.200000,810.300000C1252.700000,840.200000,1300.300000,876.200000,1349.200000,919.500000C1539,1087.300000,1748.800000,1364.600000,1818.600000,1816.900000C1818.600000,1817.200000,1818.700000,1817.500000,1818.700000,1817.800000L1818.700000,1817.200000C1818.700000,1817.200000,1818.700000,1817.200000,1818.800000,1816.400000L1818.800000,1816.400000C1818.800000,1816.300000,1818.800000,1816.300000,1818.800000,1816.200000C1818.900000,1815.500000,1819,1814.500000,1819.100000,1813.200000C1822,1785,1837.700000,1627.500000,1853.900000,1420.400000C1854,1419.800000,1854,1419.300000,1854.100000,1418.700000C1854.300000,1415.500000,1854.600000,1412.400000,1854.800000,1409.200000C1863.500000,1273,1797.300000,1163.500000,1707.400000,1078.600000C1707.400000,1078.600000,1707.300000,1078.500000,1707.200000,1078.500000C1682.100000,1054.800000,1655.200000,1033.100000,1627.400000,1013.200000C1627.400000,1013.200000,1627.400000,1013.200000,1627.300000,1013.200000C1612.800000,1003.300000,1597.200000,993.500000,1580.900000,984.900000C1580.900000,984.900000,1580.900000,984.900000,1580.900000,984.900000C1576.100000,982.400000,1571.200000,979.900000,1566.300000,977.700000C1554.600000,973.400000,1542.600000,968.800000,1530.300000,963.900000C1530.300000,963.900000,1530.300000,963.900000,1530.300000,963.900000C1522.100000,960.600000,1513.800000,957.200000,1505.300000,953.600000C1431.600000,922.500000,1347.400000,880,1252.700000,825C1252.700000,825,1252.700000,825,1252.700000,825C1182.500000,784.200000,1106.600000,736.600000,1024.800000,681.500000L1024.800000,681.500000C1024,681,1023.300000,680.500000,1022.500000,680C1021.300000,679.200000,1020.100000,678.400000,1018.900000,677.600000C1017.900000,677.900000,1016.600000,678.100000,1015.400000,678.200000Z" transform="translate(0,0)" opacity="0" fill="rgb(42,182,115)" stroke="none" stroke-width="1"/></g><g id="en65ms9o8r712_tr" transform="translate(0,0) rotate(4)"><path id="en65ms9o8r712" d="M1020.300000,677.500000C1021.400000,678.400000,1022.400000,679.300000,1023.500000,680.200000C1024,680.700000,1024.600000,681.100000,1025.100000,681.600000L1025.100000,681.600000C1029.900000,685.800000,1034.600000,690,1039.300000,694.100000C1049.900000,703.600000,1060.100000,713,1070,722.400000C1071.700000,724,1073.400000,725.600000,1075.100000,727.200000L1075.100000,727.200000C1301.400000,945.200000,1336.900000,1145.300000,1336.900000,1309.500000C1336.900000,1487.100000,1836.500000,1947.500000,1819.100000,1816.400000L1819.100000,1816.400000C1819.100000,1816.200000,1819,1816,1819,1815.700000C1819,1815.700000,1819,1815.700000,1819,1815.700000C1792.600000,1632.700000,1739.500000,1475.300000,1672.700000,1340.800000C1672.400000,1340.100000,1672,1339.500000,1671.700000,1338.800000C1653.700000,1302.700000,1634.600000,1268.200000,1614.900000,1235.400000C1614.100000,1234.100000,1613.300000,1232.800000,1612.500000,1231.500000C1505,1054.100000,1375.900000,924.300000,1265.200000,834.800000C1261.100000,831.500000,1257.100000,828.200000,1253,825.100000C1253,825.100000,1253,825.100000,1253,825.100000C1249.700000,822.500000,1246.400000,819.900000,1243.200000,817.400000L1243.200000,817.400000C1149.500000,744.300000,1071.600000,701.100000,1035.700000,682.700000C1032.800000,681.200000,1030.100000,679.900000,1027.800000,678.700000C1026.400000,678,1025.100000,677.400000,1023.900000,676.800000C1023,677,1022,677.200000,1021.100000,677.400000C1020.700000,677.400000,1020.500000,677.500000,1020.300000,677.500000Z" transform="translate(0,0)" opacity="0" fill="rgb(31,160,97)" stroke="none" stroke-width="1"/></g><g id="en65ms9o8r713_tr" transform="translate(415.177888,70.821011) rotate(10)"><path id="en65ms9o8r713" d="M603.406408,618.689815C603.706408,618.889815,604.006408,619.089815,604.206408,619.189815C606.406408,619.689815,608.506408,620.089815,610.706408,620.589815C610.906408,620.689815,611.206408,620.689815,611.406408,620.689815C612.606408,620.989815,613.806408,621.189815,615.106408,621.489815C617.606408,621.989815,620.206408,622.489815,622.706408,622.989815C623.006408,623.089815,623.306408,623.089815,623.606408,623.189815C628.406408,624.189815,633.106408,625.089815,637.806408,625.989815C642.306408,626.889815,646.806408,627.689815,651.206408,628.489815C652.206408,628.689815,653.206408,628.889815,654.106408,628.989815C658.506408,629.789815,662.906408,630.589815,667.306408,631.289815C669.706408,631.689815,672.106408,632.089815,674.606408,632.589815C677.006408,632.989815,679.406408,633.389815,681.806408,633.789815C681.806408,633.789815,681.806408,633.789815,681.806408,633.789815L681.806408,633.789815C683.406408,634.089815,685.006408,634.289815,686.606408,634.589815C688.206408,634.889815,689.806408,635.089815,691.406408,635.389815C697.806408,636.389815,704.106408,637.389815,710.306408,638.289815C711.906408,638.489815,713.406408,638.789815,715.006408,638.989815C716.606408,639.189815,718.106408,639.489815,719.706408,639.689815C722.806408,640.089815,725.906408,640.489815,728.906408,640.989815C729.606408,641.089815,730.306408,641.189815,731.106408,641.289815C731.306408,641.289815,731.406408,641.289815,731.606408,641.389815C733.806408,641.689815,735.906408,641.989815,738.006408,642.189815C740.806408,642.589815,743.606408,642.889815,746.406408,643.289815C746.606408,643.289815,746.806408,643.289815,747.006408,643.389815C748.806408,643.589815,750.706408,643.789815,752.506408,644.089815C753.206408,644.189815,753.806408,644.289815,754.506408,644.289815C755.306408,644.389815,756.106408,644.489815,756.906408,644.589815C758.106408,644.689815,759.206408,644.889815,760.406408,644.989815C761.506408,645.089815,762.706408,645.289815,763.806408,645.389815C765.606408,645.589815,767.406408,645.789815,769.206408,645.989815C770.106408,646.089815,771.006408,646.189815,771.806408,646.289815C772.306408,646.389815,772.806408,646.389815,773.306408,646.489815C774.506408,646.589815,775.706408,646.789815,776.806408,646.889815C778.906408,647.089815,781.106408,647.289815,783.206408,647.489815C784.806408,647.689815,786.306408,647.789815,787.906408,647.989815C789.506408,648.189815,791.006408,648.289815,792.506408,648.389815C795.706408,648.689815,798.906408,648.889815,802.006408,649.189815C803.006408,649.289815,804.106408,649.389815,805.106408,649.389815C805.606408,649.389815,806.006408,649.489815,806.506408,649.489815C811.306408,649.889815,816.006408,650.189815,820.706408,650.489815C823.206408,650.689815,825.606408,650.789815,828.106408,650.889815C828.206408,650.889815,828.306408,650.889815,828.306408,650.889815C832.406408,651.089815,836.606408,651.289815,840.606408,651.489815C840.606408,651.489815,840.706408,651.489815,840.706408,651.489815C842.306408,651.589815,843.906408,651.589815,845.506408,651.689815C847.106408,651.789815,848.706408,651.789815,850.306408,651.889815C851.106408,651.889815,851.906408,651.989815,852.706408,651.989815C853.606408,651.989815,854.506408,652.089815,855.506408,652.089815C856.406408,652.089815,857.306408,652.189815,858.206408,652.189815C859.006408,652.189815,859.906408,652.189815,860.806408,652.289815C861.406408,652.289815,861.906408,652.289815,862.506408,652.289815C863.306408,652.289815,864.206408,652.289815,865.006408,652.389815C866.406408,652.389815,867.806408,652.489815,869.206408,652.489815C869.306408,652.489815,869.406408,652.489815,869.506408,652.489815C869.806408,652.489815,870.006408,652.489815,870.306408,652.489815C870.706408,652.489815,871.206408,652.489815,871.606408,652.489815C874.306408,652.489815,877.006408,652.589815,879.606408,652.589815C880.806408,652.589815,881.906408,652.589815,883.106408,652.589815C885.006408,652.589815,886.906408,652.589815,888.806408,652.589815C893.206408,652.589815,897.506408,652.589815,901.806408,652.489815C906.106408,652.389815,910.406408,652.389815,914.606408,652.189815C918.906408,652.089815,923.106408,651.889815,927.306408,651.789815C927.606408,651.789815,928.006408,651.789815,928.306408,651.789815C930.106408,651.689815,932.006408,651.589815,933.806408,651.489815C935.606408,651.389815,937.506408,651.289815,939.306408,651.189815C939.306408,651.189815,939.406408,651.189815,939.406408,651.189815C939.506408,651.189815,939.606408,651.189815,939.706408,651.189815C941.006408,651.089815,942.306408,651.089815,943.606408,650.989815C943.806408,650.989815,943.906408,650.989815,944.006408,650.989815C944.906408,650.889815,945.906408,650.889815,946.806408,650.789815C947.206408,650.789815,947.606408,650.789815,948.006408,650.689815C950.206408,650.589815,952.406408,650.389815,954.606408,650.189815C955.006408,650.189815,955.306408,650.189815,955.706408,650.089815C957.006408,649.989815,958.406408,649.889815,959.706408,649.789815C960.006408,649.789815,960.406408,649.789815,960.706408,649.689815C963.106408,649.489815,965.506408,649.289815,967.806408,649.089815C968.806408,648.989815,969.806408,648.889815,970.806408,648.789815C971.806408,648.689815,972.806408,648.589815,973.806408,648.489815C974.006408,648.489815,974.206408,648.489815,974.406408,648.389815C974.906408,648.389815,975.406408,648.289815,975.906408,648.289815C979.906408,647.889815,983.806408,647.489815,987.706408,646.989815C988.506408,646.889815,989.406408,646.789815,990.206408,646.689815C992.306408,646.389815,994.406408,646.189815,996.506408,645.889815C997.106408,645.789815,997.606408,645.689815,998.206408,645.689815C999.006408,645.589815,999.806408,645.489815,1000.606408,645.389815C1000.606408,645.389815,1000.706408,645.389815,1000.706408,645.389815C1001.306408,645.289815,1001.906408,645.189815,1002.506408,645.189815C1007.806408,644.489815,1013.006408,643.689815,1018.106408,642.889815C1019.706408,642.589815,1021.406408,642.389815,1023.006408,642.089815C1024.606408,641.789815,1026.206408,641.589815,1027.806408,641.289815C1029.406408,640.989815,1030.906408,640.789815,1032.506408,640.489815C1034.106408,640.189815,1035.706408,639.889815,1037.306408,639.589815C1040.506408,638.989815,1043.606408,638.389815,1046.706408,637.789815C1046.906408,637.789815,1047.106408,637.689815,1047.306408,637.689815C1050.206408,637.089815,1053.106408,636.489815,1056.006408,635.889815C1056.106408,635.889815,1056.206408,635.889815,1056.206408,635.789815C1056.506408,635.689815,1056.806408,635.689815,1057.106408,635.589815C1057.506408,635.489815,1057.806408,635.389815,1058.206408,635.289815C1058.806408,635.189815,1059.306408,635.089815,1059.806408,634.889815C1061.006408,634.589815,1062.206408,634.389815,1063.306408,634.089815C1063.406408,634.089815,1063.606408,633.989815,1063.706408,633.989815C1066.006408,633.489815,1068.306408,632.889815,1070.606408,632.289815C1072.606408,631.789815,1074.506408,631.289815,1076.506408,630.789815C1077.106408,630.589815,1077.806408,630.489815,1078.406408,630.289815C1080.406408,629.789815,1082.506408,629.189815,1084.506408,628.689815C1087.506408,627.889815,1090.406408,627.089815,1093.306408,626.189815C1095.106408,625.689815,1097.006408,625.089815,1098.806408,624.589815C1103.406408,623.189815,1107.906408,621.789815,1112.306408,620.289815C1113.806408,619.789815,1115.306408,619.289815,1116.706408,618.789815C1119.706408,617.789815,1122.706408,616.789815,1125.606408,615.689815C1127.306408,615.089815,1128.906408,614.489815,1130.506408,613.889815C1131.306408,613.589815,1132.106408,613.289815,1132.906408,612.989815C1134.606408,612.289815,1136.406408,611.689815,1138.106408,610.989815C1140.006408,610.289815,1141.906408,609.489815,1143.806408,608.689815C1150.206408,606.089815,1156.306408,603.389815,1162.406408,600.689815C1163.506408,600.189815,1164.606408,599.689815,1165.706408,599.189815C1167.106408,598.589815,1168.506408,597.889815,1169.906408,597.189815C1172.006408,596.189815,1174.006408,595.189815,1176.006408,594.189815C1179.306408,592.589815,1182.606408,590.889815,1185.806408,589.189815C1187.406408,588.289815,1189.006408,587.489815,1190.606408,586.589815C1194.306408,584.589815,1197.906408,582.589815,1201.406408,580.489815C1203.206408,579.489815,1204.906408,578.489815,1206.606408,577.389815C1218.606408,570.089815,1230.006408,562.489815,1240.706408,554.389815C1241.906408,553.489815,1243.106408,552.589815,1244.306408,551.589815C1244.506408,551.389815,1244.706408,551.289815,1244.906408,551.089815C1245.006408,550.989815,1245.206408,550.889815,1245.306408,550.789815C1245.606408,550.589815,1245.906408,550.289815,1246.206408,550.089815C1247.406408,549.189815,1248.506408,548.289815,1249.606408,547.389815C1251.106408,546.189815,1252.506408,545.089815,1254.006408,543.889815C1255.506408,542.689815,1256.906408,541.489815,1258.306408,540.289815C1258.706408,539.989815,1259.006408,539.689815,1259.406408,539.389815C1260.506408,538.489815,1261.506408,537.589815,1262.606408,536.689815C1268.206408,531.889815,1273.506408,526.889815,1278.706408,521.889815C1280.006408,520.589815,1281.306408,519.389815,1282.606408,518.089815C1283.806408,516.889815,1284.906408,515.689815,1286.106408,514.489815C1287.806408,512.689815,1289.506408,510.989815,1291.106408,509.189815C1292.006408,508.289815,1292.806408,507.389815,1293.606408,506.489815C1296.006408,503.889815,1298.306408,501.289815,1300.606408,498.589815C1301.506408,497.589815,1302.406408,496.489815,1303.306408,495.489815C1304.706408,493.889815,1306.006408,492.289815,1307.306408,490.689815C1308.206408,489.589815,1309.106408,488.489815,1309.906408,487.489815C1310.706408,486.489815,1311.606408,485.389815,1312.406408,484.389815C1313.306408,483.289815,1314.206408,482.089815,1315.106408,480.989815C1317.906408,477.489815,1320.506408,473.889815,1323.106408,470.289815C1325.006408,467.589815,1326.906408,464.889815,1328.806408,462.189815C1329.806408,460.789815,1330.706408,459.389815,1331.606408,457.989815C1332.606408,456.489815,1333.506408,455.089815,1334.506408,453.589815C1338.006408,448.089815,1341.406408,442.489815,1344.706408,436.889815C1345.506408,435.589815,1346.206408,434.289815,1346.906408,432.989815C1347.806408,431.489815,1348.606408,429.889815,1349.506408,428.389815C1350.306408,426.989815,1351.106408,425.489815,1351.806408,424.089815C1352.606408,422.689815,1353.306408,421.189815,1354.006408,419.789815C1357.706408,412.689815,1361.206408,405.489815,1364.406408,398.289815C1365.106408,396.889815,1365.706408,395.389815,1366.306408,393.989815C1367.006408,392.589815,1367.606408,391.089815,1368.206408,389.689815C1368.806408,388.189815,1369.406408,386.789815,1370.006408,385.389815C1377.406408,367.489815,1383.506408,349.589815,1388.406408,332.089815C1388.806408,330.589815,1389.206408,329.089815,1389.706408,327.689815C1392.206408,318.489815,1394.406408,309.389815,1396.306408,300.489815C1396.606408,299.289815,1396.806408,298.089815,1397.106408,296.889815C1400.306408,281.689815,1402.706408,266.989815,1404.506408,252.989815C1404.806408,250.489815,1405.106408,247.989815,1405.406408,245.489815C1405.706408,242.989815,1406.006408,240.589815,1406.206408,238.089815C1406.506408,235.689815,1406.706408,233.289815,1406.906408,230.889815C1407.006408,229.689815,1407.106408,228.489815,1407.206408,227.289815C1407.506408,223.389815,1407.806408,219.589815,1408.006408,215.789815C1408.106408,214.489815,1408.206408,213.189815,1408.306408,211.889815C1408.506408,207.989815,1408.706408,204.089815,1408.906408,200.389815C1409.006408,198.289815,1409.106408,196.189815,1409.106408,194.089815C1410.406408,149.889815,1406.406408,121.189815,1406.406408,121.189815C1393.706408,121.989815,1379.206408,125.389815,1363.006408,130.989815L1362.906408,130.989815C1317.906408,146.689815,1260.506408,179.489815,1197.206408,221.189815L1197.106408,221.189815C1197.006408,221.189815,1197.006408,221.189815,1197.006408,221.189815C1138.406408,259.689815,1074.906408,305.789815,1011.406408,352.689815C933.406408,410.289815,855.606408,469.189815,787.706408,516.889815C712.406408,569.789815,649.106408,608.889815,611.106408,617.289815C610.206408,617.489815,609.206408,617.689815,608.306408,617.889815C608.106408,617.889815,607.806408,617.989815,607.606408,617.989815C607.206408,618.089815,606.906408,618.089815,606.506408,618.189815C605.906408,618.389815,604.606408,618.589815,603.406408,618.689815Z" transform="translate(0,0)" opacity="0.04" fill="rgb(28,147,85)" stroke="none" stroke-width="1"/></g><g id="en65ms9o8r714_tr" transform="translate(0,0) rotate(-2)"><path id="en65ms9o8r714" d="M1015.400000,678.200000C1015.700000,678.400000,1016,678.600000,1016.200000,678.700000C1016.600000,679,1017,679.200000,1017.400000,679.500000C1021.600000,682.300000,1025.800000,685.200000,1029.900000,687.900000C1033,690,1036.100000,692,1039.100000,694.100000C1040.200000,694.800000,1041.200000,695.500000,1042.300000,696.300000C1044.400000,697.700000,1046.400000,699.100000,1048.500000,700.400000C1050.600000,701.800000,1052.600000,703.100000,1054.700000,704.500000C1059.300000,707.600000,1063.900000,710.600000,1068.500000,713.600000C1070.800000,715.100000,1073.100000,716.600000,1075.400000,718.100000C1086.800000,725.600000,1098.100000,732.900000,1109.200000,740C1116.200000,744.500000,1123.100000,748.900000,1130,753.300000C1132.400000,754.800000,1134.800000,756.300000,1137.100000,757.800000C1139.500000,759.300000,1141.800000,760.800000,1144.200000,762.300000C1144.300000,762.300000,1144.400000,762.400000,1144.500000,762.500000C1146.800000,763.900000,1149,765.300000,1151.300000,766.800000C1156,769.700000,1160.700000,772.600000,1165.300000,775.500000C1167.400000,776.800000,1169.500000,778.100000,1171.600000,779.400000C1175.100000,781.500000,1178.500000,783.700000,1182,785.800000C1183.700000,786.800000,1185.400000,787.900000,1187.200000,789C1193.900000,793.100000,1200.500000,797.100000,1207.100000,801.100000C1209,802.200000,1210.800000,803.300000,1212.700000,804.400000C1214.500000,805.500000,1216.400000,806.600000,1218.200000,807.700000C1221.900000,809.900000,1225.500000,812.100000,1229.200000,814.200000C1232.800000,816.300000,1236.400000,818.500000,1240,820.600000L1240,820.600000C1240,820.600000,1240,820.600000,1240.100000,820.600000C1241.900000,821.700000,1243.700000,822.700000,1245.500000,823.800000C1247.100000,824.700000,1248.700000,825.700000,1250.200000,826.600000C1251.800000,827.500000,1253.400000,828.500000,1255,829.400000C1257.200000,830.700000,1259.400000,831.900000,1261.600000,833.200000C1262.700000,833.800000,1263.900000,834.500000,1265,835.100000C1266.600000,836,1268.300000,837,1269.900000,837.900000C1272.300000,839.300000,1274.800000,840.700000,1277.200000,842.100000C1277.300000,842.100000,1277.400000,842.200000,1277.500000,842.300000C1279.800000,843.600000,1282.200000,845,1284.500000,846.300000C1286.900000,847.700000,1289.400000,849,1291.800000,850.400000C1294.200000,851.800000,1296.600000,853.100000,1299,854.400000C1301.400000,855.700000,1303.800000,857.100000,1306.200000,858.400000C1308.600000,859.700000,1311,861,1313.300000,862.300000C1315.700000,863.600000,1318,864.900000,1320.400000,866.200000C1322.700000,867.500000,1325,868.700000,1327.200000,869.900000C1329.500000,871.100000,1331.800000,872.400000,1334,873.600000C1334.100000,873.700000,1334.300000,873.700000,1334.400000,873.800000C1350.700000,882.500000,1366.600000,890.900000,1382.200000,898.800000C1384.100000,899.800000,1386,900.700000,1387.900000,901.700000C1388.200000,901.900000,1388.500000,902,1388.900000,902.200000C1391.100000,903.300000,1393.300000,904.400000,1395.500000,905.500000C1404.300000,909.900000,1413,914.200000,1421.500000,918.300000C1423.200000,919.100000,1425,920,1426.700000,920.800000C1433.600000,924.100000,1440.400000,927.300000,1447.200000,930.500000C1449,931.300000,1450.800000,932.100000,1452.500000,933C1459.100000,936,1465.700000,939,1472.100000,941.900000C1475.400000,943.400000,1478.600000,944.800000,1481.900000,946.200000C1488.400000,949,1494.800000,951.800000,1501.100000,954.500000C1503.100000,955.300000,1505,956.100000,1506.900000,957C1508.800000,957.800000,1510.700000,958.600000,1512.600000,959.400000C1512.600000,959.400000,1512.600000,959.400000,1512.700000,959.400000C1527.900000,965.700000,1542.500000,971.400000,1556.800000,976.700000C1557,976.800000,1557.200000,976.800000,1557.300000,976.900000C1559.700000,977.800000,1562.100000,978.700000,1564.500000,979.500000C1564.800000,979.600000,1565.100000,979.700000,1565.400000,979.800000C1568.100000,980.800000,1570.700000,981.700000,1573.300000,982.600000C1574.200000,982.900000,1575,983.200000,1575.900000,983.500000C1577.600000,984.100000,1579.300000,984.700000,1580.900000,985.300000C1580.900000,985.300000,1580.900000,985.300000,1580.900000,985.300000C1582.300000,985.800000,1583.600000,986.200000,1585,986.700000C1586.300000,987.100000,1587.600000,987.600000,1588.900000,988C1590.800000,988.600000,1592.600000,989.300000,1594.500000,989.900000C1594.600000,989.900000,1594.600000,989.900000,1594.700000,990C1608.100000,994.400000,1621,998.300000,1633.400000,1001.800000C1641.700000,1003.800000,1649.700000,1005.600000,1657.400000,1007C1681.400000,1011.700000,1702.800000,1014.100000,1721.900000,1014.700000C1833.100000,1018.400000,1868.100000,960.900000,1879,923.100000C1882.100000,912.500000,1883.300000,903.500000,1883.700000,897.700000C1883.700000,897.600000,1883.700000,897.600000,1883.700000,897.600000C1883.800000,895.500000,1883.900000,893.500000,1884,891.400000C1884,891.200000,1884,891.100000,1884,891.100000C1884,891.100000,1884,891,1884,890.900000C1884.300000,884,1884.600000,877,1884.800000,870.100000L1884.800000,870.100000C1865.400000,780.300000,1721.400000,731.200000,1555.600000,704.600000C1529.300000,700.400000,1502.500000,696.800000,1475.500000,693.600000C1471.900000,693.200000,1468.400000,692.800000,1464.800000,692.400000C1464.700000,692.400000,1464.700000,692.400000,1464.700000,692.400000C1461.800000,693,1458.900000,693.600000,1456,694.200000C1455.800000,694.200000,1455.600000,694.300000,1455.400000,694.300000C1452.300000,694.900000,1449.200000,695.600000,1446,696.100000C1444.400000,696.400000,1442.800000,696.700000,1441.200000,697C1439.600000,697.300000,1438.100000,697.600000,1436.500000,697.800000C1434.900000,698.100000,1433.300000,698.400000,1431.700000,698.600000C1430.800000,698.800000,1429.900000,698.900000,1429.100000,699C1428.400000,699.100000,1427.600000,699.200000,1426.900000,699.300000C1421.800000,700.100000,1416.600000,700.900000,1411.300000,701.600000C1411,701.600000,1410.600000,701.700000,1410.200000,701.700000C1410,701.700000,1409.700000,701.800000,1409.500000,701.800000C1409.500000,701.800000,1409.400000,701.800000,1409.400000,701.800000C1408.800000,701.900000,1408.300000,702,1407.700000,702.100000C1407,702.200000,1406.300000,702.300000,1405.700000,702.400000C1405.600000,702.400000,1405.500000,702.400000,1405.300000,702.400000C1405.200000,702.400000,1405.100000,702.400000,1404.900000,702.400000C1403.700000,702.600000,1402.600000,702.700000,1401.400000,702.800000C1400.600000,702.900000,1399.800000,703,1399,703.100000C1398.200000,703.200000,1397.300000,703.300000,1396.500000,703.400000C1396,703.400000,1395.600000,703.500000,1395.100000,703.600000C1393.200000,703.800000,1391.200000,704.100000,1389.200000,704.300000C1387.700000,704.400000,1386.200000,704.600000,1384.700000,704.800000C1384.200000,704.800000,1383.700000,704.900000,1383.200000,704.900000C1383,704.900000,1382.800000,704.900000,1382.600000,705C1382.200000,705.100000,1381.800000,705.100000,1381.300000,705.100000C1381.300000,705.100000,1381.300000,705.100000,1381.200000,705.100000C1380.100000,705.200000,1379.100000,705.300000,1378,705.400000C1377.500000,705.400000,1377,705.500000,1376.500000,705.500000C1374.100000,705.700000,1371.800000,705.900000,1369.400000,706.100000C1368.500000,706.200000,1367.700000,706.300000,1366.800000,706.300000C1366.400000,706.300000,1366,706.300000,1365.500000,706.400000C1365.100000,706.400000,1364.700000,706.400000,1364.400000,706.500000C1364,706.500000,1363.700000,706.600000,1363.300000,706.600000C1361.100000,706.800000,1358.900000,706.900000,1356.700000,707.100000C1356.700000,707.100000,1356.600000,707.100000,1356.600000,707.100000C1356.200000,707.100000,1355.900000,707.100000,1355.500000,707.200000C1354.600000,707.300000,1353.600000,707.300000,1352.700000,707.400000C1352.600000,707.400000,1352.400000,707.400000,1352.300000,707.400000C1351,707.500000,1349.700000,707.500000,1348.400000,707.600000C1348.300000,707.600000,1348.200000,707.600000,1348.100000,707.600000C1348.100000,707.600000,1348,707.600000,1348,707.600000C1346.600000,707.700000,1345.200000,707.800000,1343.700000,707.800000C1342.700000,707.800000,1341.700000,707.900000,1340.700000,707.900000C1339.700000,707.900000,1338.800000,708,1337.800000,708C1337.500000,708,1337.200000,708,1336.900000,708C1336.600000,708,1336.200000,708,1335.900000,708C1334.600000,708.100000,1333.400000,708.100000,1332.100000,708.200000C1332,708.200000,1332,708.200000,1331.900000,708.200000C1330.100000,708.300000,1328.300000,708.300000,1326.400000,708.400000C1325.900000,708.400000,1325.500000,708.400000,1325,708.400000C1324.400000,708.400000,1323.800000,708.400000,1323.200000,708.400000C1319,708.500000,1314.700000,708.600000,1310.400000,708.700000C1306.100000,708.700000,1301.700000,708.800000,1297.400000,708.800000C1295.500000,708.800000,1293.600000,708.800000,1291.700000,708.800000C1290.500000,708.800000,1289.400000,708.800000,1288.200000,708.800000C1287,708.800000,1285.700000,708.800000,1284.500000,708.800000C1283.100000,708.800000,1281.700000,708.800000,1280.300000,708.700000C1280.200000,708.700000,1280.200000,708.700000,1280.100000,708.700000C1279.700000,708.700000,1279.200000,708.700000,1278.800000,708.700000C1278.500000,708.700000,1278.300000,708.700000,1278,708.700000C1277.900000,708.700000,1277.800000,708.700000,1277.700000,708.700000C1276.300000,708.700000,1274.900000,708.600000,1273.500000,708.600000C1273,708.600000,1272.500000,708.600000,1272,708.600000C1271.400000,708.600000,1270.800000,708.600000,1270.200000,708.600000C1269.900000,708.600000,1269.600000,708.600000,1269.300000,708.600000C1268.500000,708.600000,1267.600000,708.600000,1266.700000,708.500000C1265.800000,708.500000,1264.900000,708.400000,1264,708.400000C1263.100000,708.400000,1262.200000,708.300000,1261.200000,708.300000C1260.400000,708.300000,1259.600000,708.200000,1258.800000,708.200000C1257.200000,708.100000,1255.600000,708.100000,1254,708C1252.400000,707.900000,1250.800000,707.900000,1249.200000,707.800000C1249.100000,707.800000,1249.100000,707.800000,1249.100000,707.800000C1247.300000,707.700000,1245.400000,707.600000,1243.500000,707.500000C1243.200000,707.500000,1242.900000,707.500000,1242.600000,707.400000C1240.600000,707.300000,1238.700000,707.200000,1236.700000,707.100000C1236.600000,707.100000,1236.500000,707.100000,1236.500000,707.100000C1235.800000,707.100000,1235.200000,707,1234.500000,707C1232.300000,706.900000,1230.200000,706.700000,1228,706.600000C1227,706.500000,1225.900000,706.500000,1224.900000,706.400000C1224.800000,706.400000,1224.700000,706.400000,1224.600000,706.400000C1223,706.300000,1221.400000,706.200000,1219.700000,706.100000C1218.100000,706,1216.400000,705.900000,1214.800000,705.700000C1214.300000,705.700000,1213.900000,705.600000,1213.400000,705.600000C1212.400000,705.500000,1211.300000,705.400000,1210.300000,705.400000C1207.100000,705.200000,1204,704.900000,1200.800000,704.600000C1199.300000,704.500000,1197.700000,704.300000,1196.200000,704.200000C1194.700000,704.100000,1193.100000,703.900000,1191.500000,703.700000C1189.500000,703.500000,1187.600000,703.400000,1185.600000,703.200000C1184.600000,703.100000,1183.500000,703,1182.500000,702.900000C1182.200000,702.900000,1181.900000,702.800000,1181.600000,702.800000C1181.100000,702.700000,1180.600000,702.700000,1180.100000,702.600000C1179.600000,702.600000,1179.100000,702.500000,1178.700000,702.500000C1178.300000,702.500000,1177.900000,702.400000,1177.500000,702.400000C1175.700000,702.200000,1173.900000,702,1172.100000,701.800000C1171,701.700000,1169.800000,701.600000,1168.700000,701.400000C1167.900000,701.300000,1167,701.200000,1166.200000,701.100000C1165.700000,701,1165.100000,701,1164.600000,700.900000C1164.500000,700.900000,1164.400000,700.900000,1164.200000,700.900000L1162.700000,700.700000C1162,700.600000,1161.400000,700.600000,1160.700000,700.500000C1158.900000,700.300000,1157,700.100000,1155.200000,699.800000C1155,699.800000,1154.800000,699.800000,1154.600000,699.700000C1151.800000,699.400000,1149,699,1146.200000,698.600000C1144.100000,698.300000,1141.900000,698,1139.800000,697.800000C1139.600000,697.800000,1139.400000,697.800000,1139.300000,697.700000C1138.600000,697.600000,1137.800000,697.500000,1137.100000,697.400000C1136.600000,697.300000,1136.100000,697.300000,1135.600000,697.200000C1134.500000,697,1133.300000,696.900000,1132.200000,696.700000C1131.500000,696.600000,1130.800000,696.500000,1130,696.400000C1126.200000,695.900000,1122.400000,695.300000,1118.500000,694.800000C1112.200000,693.900000,1106,692.900000,1099.600000,691.900000C1097.800000,691.600000,1096,691.300000,1094.200000,691C1092.800000,690.800000,1091.400000,690.600000,1090.100000,690.300000L1090.100000,690.300000C1090.100000,690.300000,1090.100000,690.300000,1090.100000,690.300000C1087.100000,689.800000,1084.100000,689.300000,1081,688.800000C1079.200000,688.500000,1077.400000,688.200000,1075.600000,687.900000C1073.800000,687.600000,1072,687.300000,1070.200000,686.900000C1067.600000,686.400000,1065,686,1062.500000,685.500000C1061.500000,685.300000,1060.500000,685.100000,1059.600000,685C1055.200000,684.200000,1050.700000,683.300000,1046.200000,682.500000C1044.900000,682.200000,1043.500000,682,1042.200000,681.700000C1038.500000,681,1034.900000,680.300000,1031.100000,679.500000C1029.800000,679.200000,1028.400000,679,1027.100000,678.700000C1025.900000,678.500000,1024.700000,678.200000,1023.500000,678C1022.700000,677.800000,1021.800000,677.700000,1021,677.500000C1020.800000,677.500000,1020.600000,677.400000,1020.400000,677.400000C1020.200000,677.400000,1019.900000,677.500000,1019.700000,677.500000C1019.300000,677.600000,1019,677.600000,1018.600000,677.700000C1017.900000,677.900000,1016.600000,678.100000,1015.400000,678.200000Z" transform="translate(0,0)" opacity="0" fill="rgb(31,160,97)" stroke="none" stroke-width="1"/></g><path id="en65ms9o8r715" d="M274.896292,616.278988C274.896292,616.278988,274.996292,616.278988,274.996292,616.278988C305.596292,619.678988,335.996292,623.678988,365.796292,628.478988C443.396292,632.578988,553.296292,622.278988,624.196292,546.978988C671.896292,496.478988,701.996292,416.678988,692.996292,292.178988C691.796292,278.378988,690.496292,265.078988,688.996292,252.578988C685.496292,225.078988,680.196292,195.678988,672.896292,164.078988C672.896292,163.978988,672.896292,163.978988,672.796292,163.878988C661.396292,123.178988,645.996292,100.578988,625.696292,101.878988C625.696292,101.878988,629.696292,130.678988,628.396292,174.778988C628.296292,176.778988,628.296292,178.878988,628.196292,181.078988C628.096292,184.778988,627.896292,188.678988,627.596292,192.578988C627.496292,193.878988,627.396292,195.178988,627.296292,196.478988C627.096292,200.278988,626.796292,204.078988,626.496292,207.978988C626.396292,209.178988,626.296292,210.378988,626.196292,211.578988C625.996292,213.978988,625.696292,216.378988,625.496292,218.778988C625.296292,221.178988,624.996292,223.678988,624.696292,226.178988C624.396292,228.678988,624.096292,231.178988,623.796292,233.678988C621.996292,247.678988,619.596292,262.378988,616.396292,277.578988C616.096292,278.778988,615.896292,279.978988,615.596292,281.178988C613.696292,290.078988,611.496292,299.178988,608.996292,308.378988C608.596292,309.878988,608.196292,311.378988,607.696292,312.778988C602.796292,330.278988,596.696292,348.178988,589.296292,366.078988C588.696292,367.478988,588.096292,368.978988,587.496292,370.378988C586.896292,371.878988,586.296292,373.278988,585.596292,374.678988C584.996292,376.178988,584.296292,377.578988,583.696292,378.978988C580.496292,386.178988,576.996292,393.378988,573.296292,400.478988C572.596292,401.878988,571.796292,403.378988,571.096292,404.778988C570.296292,406.178988,569.596292,407.678988,568.796292,409.078988C567.996292,410.678988,567.096292,412.178988,566.196292,413.678988C565.496292,414.978988,564.696292,416.278988,563.996292,417.578988C560.796292,423.178988,557.396292,428.778988,553.796292,434.278988C552.796292,435.778988,551.896292,437.178988,550.896292,438.678988C549.996292,440.078988,549.096292,441.478988,548.096292,442.878988C546.296292,445.578988,544.396292,448.278988,542.396292,450.978988C539.796292,454.578988,537.096292,458.178988,534.396292,461.678988C533.496292,462.778988,532.596292,463.978988,531.696292,465.078988C530.896292,466.078988,529.996292,467.178988,529.196292,468.178988C528.296292,469.278988,527.496292,470.378988,526.596292,471.378988C525.296292,472.978988,523.896292,474.578988,522.596292,476.178988C521.696292,477.178988,520.796292,478.278988,519.896292,479.278988C517.596292,481.878988,515.296292,484.578988,512.896292,487.178988C512.096292,488.078988,511.296292,488.978988,510.396292,489.878988C508.696292,491.678988,507.096292,493.378988,505.396292,495.178988C504.196292,496.378988,503.096292,497.578988,501.896292,498.778988C500.596292,500.078988,499.296292,501.278988,497.996292,502.578988C492.796292,507.578988,487.396292,512.578988,481.896292,517.378988C480.896292,518.278988,479.796292,519.178988,478.696292,520.078988C478.396292,520.378988,477.996292,520.678988,477.596292,520.978988C476.196292,522.178988,474.696292,523.378988,473.296292,524.578988C471.896292,525.778988,470.396292,526.978988,468.896292,528.078988C467.796292,528.978988,466.596292,529.878988,465.496292,530.778988C465.196292,530.978988,464.896292,531.278988,464.596292,531.478988C464.496292,531.578988,464.296292,531.678988,464.196292,531.778988C463.996292,531.978988,463.796292,532.078988,463.596292,532.278988C462.396292,533.278988,461.196292,534.178988,459.996292,535.078988C449.296292,543.078988,437.896292,550.778988,425.896292,558.078988C424.196292,559.178988,422.396292,560.178988,420.696292,561.178988C417.196292,563.278988,413.596292,565.278988,409.896292,567.278988C408.296292,568.178988,406.696292,568.978988,405.096292,569.878988C401.896292,571.578988,398.596292,573.278988,395.296292,574.878988C393.296292,575.878988,391.196292,576.878988,389.196292,577.878988C387.796292,578.578988,386.396292,579.178988,384.996292,579.878988C383.896292,580.378988,382.796292,580.878988,381.696292,581.378988C375.696292,584.178988,369.496292,586.778988,363.096292,589.378988C361.196292,590.178988,359.296292,590.878988,357.396292,591.678988C355.696292,592.378988,353.896292,592.978988,352.196292,593.678988C351.396292,593.978988,350.596292,594.278988,349.796292,594.578988C348.096292,595.178988,346.496292,595.778988,344.896292,596.378988C341.996292,597.478988,338.996292,598.478988,335.996292,599.478988C334.496292,599.978988,333.096292,600.478988,331.596292,600.978988C327.196292,602.478988,322.696292,603.878988,318.096292,605.278988C316.296292,605.878988,314.396292,606.378988,312.596292,606.878988C309.696292,607.678988,306.796292,608.578988,303.796292,609.378988C301.796292,609.878988,299.696292,610.478988,297.696292,610.978988C296.996292,611.178988,296.396292,611.278988,295.796292,611.478988C293.896292,611.978988,291.896292,612.478988,289.896292,612.978988C287.496292,613.578988,285.096292,614.178988,282.596292,614.778988C281.396292,615.078988,280.296292,615.278988,279.096292,615.578988C278.596292,615.678988,277.996292,615.778988,277.496292,615.978988C277.096292,616.078988,276.796292,616.178988,276.396292,616.278988C276.096292,616.378988,275.796292,616.378988,275.596292,616.478988C275.596292,616.478988,275.496292,616.478988,275.496292,616.478988C274.996292,616.278988,274.996292,616.278988,274.896292,616.278988Z" transform="matrix(1 0 0 1 1189.68673690500054 90.34994687499739)" opacity="0" fill="rgb(31,160,97)" stroke="none" stroke-width="1"/><g id="en65ms9o8r716_tr" transform="translate(1599.602222,65.985969) rotate(-10)"><path id="en65ms9o8r716" d="M603.406408,618.689815C603.706408,618.889815,604.006408,619.089815,604.206408,619.189815C606.406408,619.689815,608.506408,620.089815,610.706408,620.589815C610.906408,620.689815,611.206408,620.689815,611.406408,620.689815C612.606408,620.989815,613.806408,621.189815,615.106408,621.489815C617.606408,621.989815,620.206408,622.489815,622.706408,622.989815C623.006408,623.089815,623.306408,623.089815,623.606408,623.189815C628.406408,624.189815,633.106408,625.089815,637.806408,625.989815C642.306408,626.889815,646.806408,627.689815,651.206408,628.489815C652.206408,628.689815,653.206408,628.889815,654.106408,628.989815C658.506408,629.789815,662.906408,630.589815,667.306408,631.289815C669.706408,631.689815,672.106408,632.089815,674.606408,632.589815C677.006408,632.989815,679.406408,633.389815,681.806408,633.789815C681.806408,633.789815,681.806408,633.789815,681.806408,633.789815L681.806408,633.789815C683.406408,634.089815,685.006408,634.289815,686.606408,634.589815C688.206408,634.889815,689.806408,635.089815,691.406408,635.389815C697.806408,636.389815,704.106408,637.389815,710.306408,638.289815C711.906408,638.489815,713.406408,638.789815,715.006408,638.989815C716.606408,639.189815,718.106408,639.489815,719.706408,639.689815C722.806408,640.089815,725.906408,640.489815,728.906408,640.989815C729.606408,641.089815,730.306408,641.189815,731.106408,641.289815C731.306408,641.289815,731.406408,641.289815,731.606408,641.389815C733.806408,641.689815,735.906408,641.989815,738.006408,642.189815C740.806408,642.589815,743.606408,642.889815,746.406408,643.289815C746.606408,643.289815,746.806408,643.289815,747.006408,643.389815C748.806408,643.589815,750.706408,643.789815,752.506408,644.089815C753.206408,644.189815,753.806408,644.289815,754.506408,644.289815C755.306408,644.389815,756.106408,644.489815,756.906408,644.589815C758.106408,644.689815,759.206408,644.889815,760.406408,644.989815C761.506408,645.089815,762.706408,645.289815,763.806408,645.389815C765.606408,645.589815,767.406408,645.789815,769.206408,645.989815C770.106408,646.089815,771.006408,646.189815,771.806408,646.289815C772.306408,646.389815,772.806408,646.389815,773.306408,646.489815C774.506408,646.589815,775.706408,646.789815,776.806408,646.889815C778.906408,647.089815,781.106408,647.289815,783.206408,647.489815C784.806408,647.689815,786.306408,647.789815,787.906408,647.989815C789.506408,648.189815,791.006408,648.289815,792.506408,648.389815C795.706408,648.689815,798.906408,648.889815,802.006408,649.189815C803.006408,649.289815,804.106408,649.389815,805.106408,649.389815C805.606408,649.389815,806.006408,649.489815,806.506408,649.489815C811.306408,649.889815,816.006408,650.189815,820.706408,650.489815C823.206408,650.689815,825.606408,650.789815,828.106408,650.889815C828.206408,650.889815,828.306408,650.889815,828.306408,650.889815C832.406408,651.089815,836.606408,651.289815,840.606408,651.489815C840.606408,651.489815,840.706408,651.489815,840.706408,651.489815C842.306408,651.589815,843.906408,651.589815,845.506408,651.689815C847.106408,651.789815,848.706408,651.789815,850.306408,651.889815C851.106408,651.889815,851.906408,651.989815,852.706408,651.989815C853.606408,651.989815,854.506408,652.089815,855.506408,652.089815C856.406408,652.089815,857.306408,652.189815,858.206408,652.189815C859.006408,652.189815,859.906408,652.189815,860.806408,652.289815C861.406408,652.289815,861.906408,652.289815,862.506408,652.289815C863.306408,652.289815,864.206408,652.289815,865.006408,652.389815C866.406408,652.389815,867.806408,652.489815,869.206408,652.489815C869.306408,652.489815,869.406408,652.489815,869.506408,652.489815C869.806408,652.489815,870.006408,652.489815,870.306408,652.489815C870.706408,652.489815,871.206408,652.489815,871.606408,652.489815C874.306408,652.489815,877.006408,652.589815,879.606408,652.589815C880.806408,652.589815,881.906408,652.589815,883.106408,652.589815C885.006408,652.589815,886.906408,652.589815,888.806408,652.589815C893.206408,652.589815,897.506408,652.589815,901.806408,652.489815C906.106408,652.389815,910.406408,652.389815,914.606408,652.189815C918.906408,652.089815,923.106408,651.889815,927.306408,651.789815C927.606408,651.789815,928.006408,651.789815,928.306408,651.789815C930.106408,651.689815,932.006408,651.589815,933.806408,651.489815C935.606408,651.389815,937.506408,651.289815,939.306408,651.189815C939.306408,651.189815,939.406408,651.189815,939.406408,651.189815C939.506408,651.189815,939.606408,651.189815,939.706408,651.189815C941.006408,651.089815,942.306408,651.089815,943.606408,650.989815C943.806408,650.989815,943.906408,650.989815,944.006408,650.989815C944.906408,650.889815,945.906408,650.889815,946.806408,650.789815C947.206408,650.789815,947.606408,650.789815,948.006408,650.689815C950.206408,650.589815,952.406408,650.389815,954.606408,650.189815C955.006408,650.189815,955.306408,650.189815,955.706408,650.089815C957.006408,649.989815,958.406408,649.889815,959.706408,649.789815C960.006408,649.789815,960.406408,649.789815,960.706408,649.689815C963.106408,649.489815,965.506408,649.289815,967.806408,649.089815C968.806408,648.989815,969.806408,648.889815,970.806408,648.789815C971.806408,648.689815,972.806408,648.589815,973.806408,648.489815C974.006408,648.489815,974.206408,648.489815,974.406408,648.389815C974.906408,648.389815,975.406408,648.289815,975.906408,648.289815C979.906408,647.889815,983.806408,647.489815,987.706408,646.989815C988.506408,646.889815,989.406408,646.789815,990.206408,646.689815C992.306408,646.389815,994.406408,646.189815,996.506408,645.889815C997.106408,645.789815,997.606408,645.689815,998.206408,645.689815C999.006408,645.589815,999.806408,645.489815,1000.606408,645.389815C1000.606408,645.389815,1000.706408,645.389815,1000.706408,645.389815C1001.306408,645.289815,1001.906408,645.189815,1002.506408,645.189815C1007.806408,644.489815,1013.006408,643.689815,1018.106408,642.889815C1019.706408,642.589815,1021.406408,642.389815,1023.006408,642.089815C1024.606408,641.789815,1026.206408,641.589815,1027.806408,641.289815C1029.406408,640.989815,1030.906408,640.789815,1032.506408,640.489815C1034.106408,640.189815,1035.706408,639.889815,1037.306408,639.589815C1040.506408,638.989815,1043.606408,638.389815,1046.706408,637.789815C1046.906408,637.789815,1047.106408,637.689815,1047.306408,637.689815C1050.206408,637.089815,1053.106408,636.489815,1056.006408,635.889815C1056.106408,635.889815,1056.206408,635.889815,1056.206408,635.789815C1056.506408,635.689815,1056.806408,635.689815,1057.106408,635.589815C1057.506408,635.489815,1057.806408,635.389815,1058.206408,635.289815C1058.806408,635.189815,1059.306408,635.089815,1059.806408,634.889815C1061.006408,634.589815,1062.206408,634.389815,1063.306408,634.089815C1063.406408,634.089815,1063.606408,633.989815,1063.706408,633.989815C1066.006408,633.489815,1068.306408,632.889815,1070.606408,632.289815C1072.606408,631.789815,1074.506408,631.289815,1076.506408,630.789815C1077.106408,630.589815,1077.806408,630.489815,1078.406408,630.289815C1080.406408,629.789815,1082.506408,629.189815,1084.506408,628.689815C1087.506408,627.889815,1090.406408,627.089815,1093.306408,626.189815C1095.106408,625.689815,1097.006408,625.089815,1098.806408,624.589815C1103.406408,623.189815,1107.906408,621.789815,1112.306408,620.289815C1113.806408,619.789815,1115.306408,619.289815,1116.706408,618.789815C1119.706408,617.789815,1122.706408,616.789815,1125.606408,615.689815C1127.306408,615.089815,1128.906408,614.489815,1130.506408,613.889815C1131.306408,613.589815,1132.106408,613.289815,1132.906408,612.989815C1134.606408,612.289815,1136.406408,611.689815,1138.106408,610.989815C1140.006408,610.289815,1141.906408,609.489815,1143.806408,608.689815C1150.206408,606.089815,1156.306408,603.389815,1162.406408,600.689815C1163.506408,600.189815,1164.606408,599.689815,1165.706408,599.189815C1167.106408,598.589815,1168.506408,597.889815,1169.906408,597.189815C1172.006408,596.189815,1174.006408,595.189815,1176.006408,594.189815C1179.306408,592.589815,1182.606408,590.889815,1185.806408,589.189815C1187.406408,588.289815,1189.006408,587.489815,1190.606408,586.589815C1194.306408,584.589815,1197.906408,582.589815,1201.406408,580.489815C1203.206408,579.489815,1204.906408,578.489815,1206.606408,577.389815C1218.606408,570.089815,1230.006408,562.489815,1240.706408,554.389815C1241.906408,553.489815,1243.106408,552.589815,1244.306408,551.589815C1244.506408,551.389815,1244.706408,551.289815,1244.906408,551.089815C1245.006408,550.989815,1245.206408,550.889815,1245.306408,550.789815C1245.606408,550.589815,1245.906408,550.289815,1246.206408,550.089815C1247.406408,549.189815,1248.506408,548.289815,1249.606408,547.389815C1251.106408,546.189815,1252.506408,545.089815,1254.006408,543.889815C1255.506408,542.689815,1256.906408,541.489815,1258.306408,540.289815C1258.706408,539.989815,1259.006408,539.689815,1259.406408,539.389815C1260.506408,538.489815,1261.506408,537.589815,1262.606408,536.689815C1268.206408,531.889815,1273.506408,526.889815,1278.706408,521.889815C1280.006408,520.589815,1281.306408,519.389815,1282.606408,518.089815C1283.806408,516.889815,1284.906408,515.689815,1286.106408,514.489815C1287.806408,512.689815,1289.506408,510.989815,1291.106408,509.189815C1292.006408,508.289815,1292.806408,507.389815,1293.606408,506.489815C1296.006408,503.889815,1298.306408,501.289815,1300.606408,498.589815C1301.506408,497.589815,1302.406408,496.489815,1303.306408,495.489815C1304.706408,493.889815,1306.006408,492.289815,1307.306408,490.689815C1308.206408,489.589815,1309.106408,488.489815,1309.906408,487.489815C1310.706408,486.489815,1311.606408,485.389815,1312.406408,484.389815C1313.306408,483.289815,1314.206408,482.089815,1315.106408,480.989815C1317.906408,477.489815,1320.506408,473.889815,1323.106408,470.289815C1325.006408,467.589815,1326.906408,464.889815,1328.806408,462.189815C1329.806408,460.789815,1330.706408,459.389815,1331.606408,457.989815C1332.606408,456.489815,1333.506408,455.089815,1334.506408,453.589815C1338.006408,448.089815,1341.406408,442.489815,1344.706408,436.889815C1345.506408,435.589815,1346.206408,434.289815,1346.906408,432.989815C1347.806408,431.489815,1348.606408,429.889815,1349.506408,428.389815C1350.306408,426.989815,1351.106408,425.489815,1351.806408,424.089815C1352.606408,422.689815,1353.306408,421.189815,1354.006408,419.789815C1357.706408,412.689815,1361.206408,405.489815,1364.406408,398.289815C1365.106408,396.889815,1365.706408,395.389815,1366.306408,393.989815C1367.006408,392.589815,1367.606408,391.089815,1368.206408,389.689815C1368.806408,388.189815,1369.406408,386.789815,1370.006408,385.389815C1377.406408,367.489815,1383.506408,349.589815,1388.406408,332.089815C1388.806408,330.589815,1389.206408,329.089815,1389.706408,327.689815C1392.206408,318.489815,1394.406408,309.389815,1396.306408,300.489815C1396.606408,299.289815,1396.806408,298.089815,1397.106408,296.889815C1400.306408,281.689815,1402.706408,266.989815,1404.506408,252.989815C1404.806408,250.489815,1405.106408,247.989815,1405.406408,245.489815C1405.706408,242.989815,1406.006408,240.589815,1406.206408,238.089815C1406.506408,235.689815,1406.706408,233.289815,1406.906408,230.889815C1407.006408,229.689815,1407.106408,228.489815,1407.206408,227.289815C1407.506408,223.389815,1407.806408,219.589815,1408.006408,215.789815C1408.106408,214.489815,1408.206408,213.189815,1408.306408,211.889815C1408.506408,207.989815,1408.706408,204.089815,1408.906408,200.389815C1409.006408,198.289815,1409.106408,196.189815,1409.106408,194.089815C1410.406408,149.889815,1406.406408,121.189815,1406.406408,121.189815C1393.706408,121.989815,1379.206408,125.389815,1363.006408,130.989815L1362.906408,130.989815C1317.906408,146.689815,1260.506408,179.489815,1197.206408,221.189815L1197.106408,221.189815C1197.006408,221.189815,1197.006408,221.189815,1197.006408,221.189815C1138.406408,259.689815,1074.906408,305.789815,1011.406408,352.689815C933.406408,410.289815,855.606408,469.189815,787.706408,516.889815C712.406408,569.789815,649.106408,608.889815,611.106408,617.289815C610.206408,617.489815,609.206408,617.689815,608.306408,617.889815C608.106408,617.889815,607.806408,617.989815,607.606408,617.989815C607.206408,618.089815,606.906408,618.089815,606.506408,618.189815C605.906408,618.389815,604.606408,618.589815,603.406408,618.689815Z" transform="scale(-1,1) translate(0,0)" opacity="0" fill="rgb(28,147,85)" stroke="none" stroke-width="1"/></g><path id="en65ms9o8r717" d="M1555,704.300000C1720.700000,730.800000,1864.700000,779.900000,1884.100000,869.800000C1884.800000,853.200000,1885.400000,836.700000,1885.900000,820.300000C1885.800000,712.500000,1856.500000,652.600000,1813.300000,622.900000C1742.500000,698.100000,1632.500000,708.400000,1555,704.300000Z" opacity="0" fill="rgb(42,182,115)" stroke="none" stroke-width="1"/></svg>